<svg width="26" height="26" viewBox="0 0 26 26" fill="none" xmlns="http://www.w3.org/2000/svg">
<g clip-path="url(#clip0_5459_187096)">
<path d="M25.6896 13.3002C25.6896 12.4165 25.618 11.5281 25.4651 10.6587H13.2031V15.6648H20.225C19.9336 17.2793 18.9974 18.7076 17.6264 19.6151V22.8634H21.8157C24.2757 20.5992 25.6896 17.2554 25.6896 13.3002Z" fill="#4285F4"/>
<path d="M13.2032 26.0021C16.7093 26.0021 19.6662 24.8509 21.8205 22.8637L17.6313 19.6155C16.4657 20.4085 14.961 20.8575 13.208 20.8575C9.81645 20.8575 6.94083 18.5694 5.90904 15.4932H1.58606V18.8417C3.79293 23.2315 8.28788 26.0021 13.2032 26.0021Z" fill="#34A853"/>
<path d="M5.90409 15.4929C5.35954 13.8784 5.35954 12.1301 5.90409 10.5155V7.16699H1.58588C-0.257956 10.8403 -0.257956 15.1681 1.58588 18.8414L5.90409 15.4929Z" fill="#FBBC04"/>
<path d="M13.2032 5.14644C15.0566 5.11778 16.8479 5.81519 18.1901 7.09537L21.9017 3.38381C19.5515 1.17694 16.4323 -0.0363616 13.2032 0.00185262C8.28788 0.00185262 3.79293 2.77238 1.58606 7.16702L5.90427 10.5155C6.93127 7.43452 9.81167 5.14644 13.2032 5.14644Z" fill="#EA4335"/>
</g>
<defs>
<clipPath id="clip0_5459_187096">
<rect width="26" height="26" fill="white" transform="translate(0 0.000976562)"/>
</clipPath>
</defs>
</svg>
